<?xml version="1.0" encoding="UTF-8"?>
<svg xmlns="http://www.w3.org/2000/svg" width="307.06" height="160" version="1.1" viewBox="0 0 307.06 160">
  <!-- Generator: Adobe Illustrator 29.6.1, SVG Export Plug-In . SVG Version: 2.1.1 Build 9)  -->
  <g id="Layer_1">
    <g>
      <path d="M76.45,106.7c.05-.05.1-.1.15-.15.05-.17.05-.23-.15.15Z"/>
      <path d="M98.42,121.68v-12.35l.06.04c0-22.74,15.93-22.55,15.93-22.55-12.78-.2-15.57-18.19-15.57-18.19l-.41-4.66v-9.96c9.07.96,14.58-6.33,17.82-13.58-8.45,8.17-19.51-1.07-26.36-6-7.43,5.29-36.47,13.94-35.37,24.97,0,1.78,1.77,6.59,2.28,9.89-8.2-1.38-15.7,4.93-14.45,14.75,3.67-5.4,17.35-11.41,18.13-1.06-5.29-1.86-9.98,2.62-9.95,8.13,3.1-2.63,7.03-3.57,10.27-1.41,1.11.74,1.8,1.96,1.95,3.28.28,2.55.47,6.23.2,7.8-.41,4.91-3.16,8.88-5.72,12.95,7.92-4.41,16.61-6.96,15.31-17.83,0-5.96-4.79-33.22-5.2-40.05-.27-4.48.85-7.01,13.1-12.57.78,1.18,1.07,1.39,1.89,2.74-2.97,2.23-5.65,3.95-9.55,6.52,1.2,13.59,4.51,36.65,4.97,50.54,0,2.6.33,1.98-1.14,3.48-.09.28-.33.83-.15.15-6.98,4.97-23.04,8.86-29.6,23.05.96-.75,2.87-2.11,4.97-3.51,4.09-2.71,9.43-2.54,13.38.37,17.89,13.15,40.65,10.09,50.53-12.58l2.6-7.47c-4.42,6.64-12.23,13.69-19.91,15.13ZM85.73,48.22c.16.09-.17-.09,0,0h0ZM96.34,121.94c-9.24,1.04-16.92-1.82-23.82-7.16,6.69-4.04,18.56-7.7,18.09-16.79-.08-5.08-4.34-43.01-4.79-48.87.52.12,1.04.29,1.53.5-.47-.15-1.24-.36-1.47-.46,2.55,1.98,7.39,3.98,10.46,4.57v68.2Z"/>
    </g>
  </g>
  <g id="Layer_3">
    <text transform="translate(121.01 78.23)" font-family="PirataOne-Regular, &apos;Pirata One&apos;" font-size="48"><tspan x="0" y="0">Leah </tspan><tspan x="0" y="42">Cortez</tspan></text>
  </g>
  <g id="Layer_2" display="none">
    <circle cx="80.27" cy="80" r="75.18" fill="none" stroke="#000" stroke-miterlimit="10" stroke-width="3"/>
  </g>
</svg>