<?xml version="1.0" encoding="UTF-8"?>
<svg id="Layer_1" xmlns="http://www.w3.org/2000/svg" width="1024" height="1024" version="1.1" viewBox="0 0 1024 1024">
  <!-- Generator: Adobe Illustrator 29.6.1, SVG Export Plug-In . SVG Version: 2.1.1 Build 9)  -->
  <path d="M540.01,472c13.8-50.29,32.48-99.33,45.71-149.78,12.77-48.71,23.48-113.52-12.2-155.23-37.77-44.15-103.38-37.16-132.32,12.71-31.13,53.63-5.86,131.92,10.54,187.07,10.56,35.54,22.39,70.79,33.27,106.22-.81.84-4.84-3.56-5.61-4.37-16.85-17.48-33.68-35.54-49.9-53.61-36.6-40.78-92.21-119.47-146.28-132.72-69.4-17-125.95,47.96-101.69,114.69,19.24,52.92,79.69,69.66,128.27,83.73,42.2,12.23,85.12,22.2,127.21,34.79,4.43,1.32,10.88,2.49,14,5.49-47.94,13.04-96.52,24.39-144.22,38.29-59.68,17.4-137.03,44.38-131.77,121.2,5.2,76.04,87.43,100.26,146.3,60.32s101.15-114.4,151.66-161.34l11.02-10.47c-5.73,19.96-11.58,39.92-17.73,59.76-19.22,62.06-55.75,147.44-32.01,211.48,29.2,78.78,135.42,73.09,158.25-7.25,19.96-70.25-23.74-166.73-43.77-235.23-2.79-9.56-6.51-20.05-7.24-29.76,19.16,21.48,38.91,42.46,58.02,63.98,36.36,40.95,86.8,112.19,141.27,125.73,79.44,19.74,140.21-64.96,94.62-133.62-26.38-39.74-84.65-55.24-128.19-67.81-44.14-12.74-88.98-23.42-133.21-35.78l132.21-36.79c53.05-15.27,123.98-33.44,141.05-93.95,18.63-66.07-39.66-122.76-105.47-107.47-55.4,12.87-110.85,92.2-148.28,133.72-17.25,19.14-35.23,37.86-53.5,55.99Z" fill="#fff"/>
  <path d="M540.01,472c18.27-18.13,36.25-36.84,53.5-55.99,37.43-41.52,92.88-120.85,148.28-133.72,65.81-15.29,124.1,41.4,105.47,107.47-17.06,60.52-88,78.69-141.05,93.95l-132.21,36.79c44.24,12.35,89.07,23.04,133.21,35.78,43.54,12.57,101.81,28.07,128.19,67.81,45.58,68.66-15.18,153.36-94.62,133.62-54.47-13.53-104.91-84.78-141.27-125.73-19.11-21.52-38.86-42.51-58.02-63.98.72,9.72,4.44,20.21,7.24,29.76,20.03,68.5,63.73,164.98,43.77,235.23-22.83,80.34-129.05,86.03-158.25,7.25-23.74-64.04,12.79-149.42,32.01-211.48,6.15-19.84,12-39.8,17.73-59.76l-11.02,10.47c-50.52,46.94-95.19,123.02-151.66,161.34-58.86,39.94-141.09,15.71-146.3-60.32-5.26-76.82,72.09-103.81,131.77-121.2,47.7-13.9,96.27-25.26,144.22-38.29-3.12-2.99-9.57-4.16-14-5.49-42.1-12.59-85.02-22.56-127.21-34.79-48.58-14.08-109.03-30.81-128.27-83.73-24.26-66.72,32.29-131.69,101.69-114.69,54.07,13.24,109.68,91.94,146.28,132.72,16.22,18.07,33.05,36.13,49.9,53.61.77.8,4.81,5.21,5.61,4.37-10.88-35.44-22.7-70.69-33.27-106.22-16.4-55.15-41.67-133.44-10.54-187.07,28.94-49.86,94.55-56.85,132.32-12.71,35.68,41.71,24.97,106.52,12.2,155.23-13.22,50.45-31.91,99.5-45.71,149.78Z"/>
</svg>