<?xml version="1.0" encoding="UTF-8"?>
<svg id="Layer_2" xmlns="http://www.w3.org/2000/svg" width="6000" height="6000" version="1.1" viewBox="0 0 6000 6000">
  <!-- Generator: Adobe Illustrator 29.6.1, SVG Export Plug-In . SVG Version: 2.1.1 Build 9)  -->
  <path d="M4552.9,2765.04l-431.79-960.36,44.95-13.21c52.99-15.57,83.32-71.15,67.75-124.14-15.57-52.99-71.15-83.32-124.14-67.75l-792.13,232.78c-38.48-28.42-89.34-39.14-138.77-24.62l-17.01,5v-216.05c0-69.04-55.96-125-125-125s-125,55.96-125,125v289.51l-109.25,32.11c-49.44,14.53-86.41,51.06-103.39,95.78l-862.68,253.51c-52.99,15.57-83.32,71.15-67.75,124.14,12.7,43.22,52.01,71.35,94.83,71.81l-416.42,926.18h-85.23c0,333.91,270.69,604.6,604.6,604.6s604.6-270.69,604.6-604.6h-85.23l-438.64-975.6,715.28-210.2c37.14,23.49,83.82,31.5,129.3,18.13l19.99-5.87v2012.1h-397.89c-82.84,0-150,67.16-150,150s67.16,150,150,150h1045.79c82.84,0,150-67.16,150-150s-67.16-150-150-150h-397.89v-2085.57l106.27-31.23c45.48-13.36,80.4-45.35,98.93-85.2l552.32-162.31-405.12,901.05h-85.23c0,333.91,270.69,604.6,604.6,604.6s604.6-270.69,604.6-604.6h-85.23ZM1611.56,3389.74l354.91-789.36,354.91,789.36h-709.81ZM3678.63,2765.04l354.91-789.36,354.91,789.36h-709.81Z" fill="#231f20"/>
</svg>