<?xml version="1.0" encoding="UTF-8"?>
<svg id="Layer_1" xmlns="http://www.w3.org/2000/svg" width="4000" height="4000" version="1.1" viewBox="0 0 4000 4000">
  <!-- Generator: Adobe Illustrator 29.6.1, SVG Export Plug-In . SVG Version: 2.1.1 Build 9)  -->
  <path d="M2000.11,3678.58c-389.48-.01-778.97-1.15-1168.45.77-99.49.49-157.29-65.08-157.12-157.58,1.02-540.14.53-1080.28.42-1620.42,0-37.54,4.37-32.52-32.84-32.64-89.88-.27-179.76-.06-269.64-.1-49.84-.02-85.27-22.8-100.33-64.33-14.64-40.39-2.01-78.33,36.61-110.47,253.55-211,507.2-421.87,760.58-633.07,280.93-234.16,561.59-468.64,842.41-702.94,58.58-48.88,110.15-49.89,169.49-1.24,155.26,127.29,309.99,255.25,464.96,382.9,21.75,17.92,43.32,36.07,65.69,53.18,6.16,4.71,11.73,16.3,20.59,11.05,7.76-4.6,3.06-15.8,3.08-23.96.26-97.58.13-195.17.21-292.75.06-72.63,28.11-99.75,101.18-99.43,101.01.44,202.05,1.84,303.01-.28,50.67-1.06,96.3,28.49,95.6,96.08-2.47,238.8-.54,477.65-1.76,716.47-.13,25.25,8.31,40.53,26.82,55.76,178.8,147.15,356.88,295.17,535.52,442.51,36.71,30.27,45.4,68.9,31.05,109.31-13.62,38.34-50.05,61.17-94.31,61.2-93.31.07-186.62.88-279.91-.54-23.72-.36-29.44,6.38-29.41,29.65.66,540.99.09,1081.99.89,1622.98.15,97.9-60.01,159.22-158.48,158.72-388.62-1.97-777.25-.81-1165.88-.82ZM2000.61,1874.26c-8.86-10.68-16.89-20.36-24.92-30.04-97.96-118.1-218.97-186.91-377.06-181.74-149.25,4.88-269.36,68.43-350.5,189.93-106.67,159.73-102.6,331.27-21.01,501.23,68.42,142.54,170.11,261.95,278.38,374.97,136.39,142.37,288.7,266.72,450.72,379.04,42.48,29.44,44.78,28.98,88.29-.17,3.55-2.38,7.13-4.71,10.65-7.14,119.67-82.71,232.01-174.49,338.56-273.46,148.51-137.96,284-286.76,377.5-468.63,81.71-158.93,89.38-322.03.02-479.06-81.16-142.63-210.61-214.9-375.59-217.3-84-1.22-163.48,18.57-236.08,63.44-62.69,38.75-112.95,90.32-158.95,148.92Z"/>
</svg>