<?xml version="1.0" encoding="UTF-8"?>
<svg id="Layer_1" xmlns="http://www.w3.org/2000/svg" width="1024" height="1024" version="1.1" viewBox="0 0 1024 1024">
  <!-- Generator: Adobe Illustrator 29.6.1, SVG Export Plug-In . SVG Version: 2.1.1 Build 9)  -->
  <path d="M808.18,207.52c-34.56,41.79-70.67,83.45-95.16,132.33-25.95,51.78-36.52,101.93,24.48,131.84,61.54,30.17,136.65,33.3,203.69,41.32-54.22,3.69-109.38,7.33-161.53,23.48-82.68,25.6-109.5,64.38-68,147.04,24.93,49.67,64.18,94.04,99.52,136.48.94,1.13,2.43,1.63,1.99,3.5-49.86-40.49-103.23-87.96-163.72-111.77-113.86-44.81-126.75,80.96-139.14,160.4l-8.12,74.37c-2.99-36.52-6.78-73.12-13.32-109.18-8.58-47.29-26.27-129.72-85.31-135.69-44.65-4.51-120.96,48.88-156.29,75.46l-59.08,47.4c32.97-36.97,65.68-75.56,91.42-118.07,17.9-29.56,41.92-76.16,29.07-110.9-11.62-31.44-51.24-47.59-80.97-57.03-53.65-17.05-111.64-21.26-167.53-25.48,64.99-6.77,135.06-10.79,195.99-36.02,79.13-32.76,61.29-92.85,25.84-153.81-24.73-42.53-57.54-80.01-88.83-117.66l55.1,42.39c35.75,26.29,108.71,77.03,153.37,75.6,48.84-1.56,70.58-65.13,80.85-104.17,12.17-46.27,16.85-94.19,20.17-141.84,2.01,0,1.35,15.37,1.51,17.5,4.27,58.19,14.91,149.12,48.36,197.64,53.14,77.09,157.64-16.46,210.52-49.74l45.11-35.38Z"/>
</svg>